<svg width="70" height="71" viewBox="0 0 70 71" fill="none" xmlns="http://www.w3.org/2000/svg">
<g clip-path="url(#clip0_75_113)">
<path d="M23.3335 70.0362C29.7736 70.0362 35.0004 64.8095 35.0004 58.3695V46.7027H23.3335C16.8935 46.7027 11.6667 51.9295 11.6667 58.3695C11.6667 64.8095 16.8935 70.0362 23.3335 70.0362Z" fill="#0ACF83"/>
<path d="M11.6667 35.0361C11.6667 28.5961 16.8935 23.3693 23.3335 23.3693H35.0004V46.7026H23.3335C16.8935 46.7028 11.6667 41.4761 11.6667 35.0361Z" fill="#A259FF"/>
<path d="M11.6667 11.703C11.6667 5.26295 16.8935 0.0361938 23.3335 0.0361938H35.0004V23.3694H23.3335C16.8935 23.3694 11.6667 18.143 11.6667 11.703Z" fill="#F24E1E"/>
<path d="M35 0.0361938H46.6668C53.1069 0.0361938 58.3337 5.26295 58.3337 11.703C58.3337 18.143 53.1069 23.3694 46.6668 23.3694H35V0.0361938Z" fill="#FF7262"/>
<path d="M58.3337 35.0361C58.3337 41.4761 53.1069 46.7028 46.6668 46.7028C40.2268 46.7028 35 41.4761 35 35.0361C35 28.5961 40.2268 23.3693 46.6668 23.3693C53.1069 23.3693 58.3337 28.5961 58.3337 35.0361Z" fill="#1ABCFE"/>
</g>
<defs>
<clipPath id="clip0_75_113">
<rect width="70" height="70" fill="white" transform="translate(0 0.0361938)"/>
</clipPath>
</defs>
</svg>
