<svg width="70" height="71" viewBox="0 0 70 71" fill="none" xmlns="http://www.w3.org/2000/svg">
<path d="M5.65547 38.1275C3.94817 36.4202 3.94818 33.6522 5.65548 31.9449L31.9087 5.69167C33.616 3.98437 36.384 3.98437 38.0913 5.69167L64.3445 31.9449C66.0518 33.6522 66.0518 36.4202 64.3445 38.1275L38.0913 64.3807C36.384 66.088 33.616 66.088 31.9087 64.3807L5.65547 38.1275Z" fill="#EE513B"/>
<path d="M26.5765 11.1085L23.918 13.7671L30.7843 20.6334C30.5066 21.2294 30.3515 21.894 30.3515 22.5948C30.3515 24.5845 31.6016 26.2823 33.3593 26.9454V43.7422C31.6016 44.4053 30.3515 46.1031 30.3515 48.0928C30.3515 50.6601 32.4327 52.7413 34.9999 52.7413C37.5672 52.7413 39.6484 50.6601 39.6484 48.0928C39.6484 46.2889 38.6208 44.725 37.1191 43.9544V26.9682L43.6827 33.5318C43.4185 34.1157 43.2714 34.7638 43.2714 35.4463C43.2714 38.0136 45.3526 40.0948 47.9199 40.0948C50.4871 40.0948 52.5683 38.0136 52.5683 35.4463C52.5683 32.8791 50.4871 30.7979 47.9199 30.7979C47.421 30.7979 46.9404 30.8765 46.49 31.022L39.4407 23.9727C39.5757 23.5373 39.6484 23.0745 39.6484 22.5948C39.6484 20.0275 37.5672 17.9463 34.9999 17.9463C34.5202 17.9463 34.0574 18.019 33.622 18.154L26.5765 11.1085Z" fill="white"/>
</svg>
