<svg width="70" height="71" viewBox="0 0 70 71" fill="none" xmlns="http://www.w3.org/2000/svg">
<rect x="4.375" y="4.41119" width="61.25" height="61.25" fill="#FFCA28"/>
<path d="M41.5625 55.3529L46.0721 52.369C46.4255 53.4793 48.6635 56.1163 51.4904 56.1163C54.3173 56.1163 55.6298 54.5723 55.6298 53.5487C55.6298 50.7592 52.7432 49.7757 51.3567 49.3033C51.1307 49.2263 50.9446 49.1629 50.8173 49.1074C50.7521 49.079 50.6533 49.0413 50.5266 48.9929C48.9846 48.4037 43.2957 46.2302 43.2957 39.93C43.2957 32.9905 49.9928 32.1924 51.5072 32.1924C52.498 32.1924 57.262 32.3139 59.6346 36.7725L55.2596 39.8259C54.3005 37.8828 52.7069 37.2409 51.726 37.2409C49.3029 37.2409 48.7981 39.0173 48.7981 39.8259C48.7981 42.0948 51.4307 43.1117 53.6535 43.9704C54.2351 44.1951 54.7886 44.4089 55.2596 44.6314C57.6827 45.7765 61.25 47.6501 61.25 53.5487C61.25 56.5031 58.772 61.2862 52.5337 61.2862C44.1538 61.2862 41.9327 56.2551 41.5625 55.3529Z" fill="#3E3E3E"/>
<path d="M19.6875 55.9455L24.3877 52.963C24.756 54.0728 26.1871 56.1189 28.2637 56.1189C30.3402 56.1189 31.403 53.9861 31.403 52.963V32.8487H37.1836V52.963C37.2771 55.7374 35.7384 61.2862 28.9476 61.2862C22.7041 61.2862 20.1084 57.5755 19.6875 55.9455Z" fill="#3E3E3E"/>
</svg>
