<svg width="70" height="71" viewBox="0 0 70 71" fill="none" xmlns="http://www.w3.org/2000/svg">
<path d="M37.5648 5.06465C36.0121 4.19141 33.9879 4.19534 32.4339 5.06465C24.6506 9.3599 16.8674 13.6565 9.08284 17.9498C7.56807 18.7466 6.5464 20.3733 6.56269 22.0618V48.0142C6.55175 49.7355 7.62611 51.3779 9.17995 52.1639C11.4159 53.3534 13.5883 54.6638 15.8647 55.7742C18.4942 57.0663 21.7841 57.352 24.4457 56.0045C26.6063 54.8877 27.5659 52.4039 27.5632 50.1212C27.5806 41.5562 27.5659 32.991 27.5699 24.426C27.6213 24.0454 27.3355 23.6385 26.9203 23.6477C25.9257 23.632 24.9297 23.6385 23.935 23.6451C23.5591 23.6095 23.1923 23.9217 23.2207 24.2995C23.2073 32.8093 23.2234 41.3217 23.2127 49.8328C23.2343 51.0101 22.439 52.1417 21.3044 52.5393C18.6839 53.4578 11.2043 48.6014 11.2043 48.6014C10.9298 48.4742 10.7555 48.1765 10.7824 47.8809C10.7824 39.3185 10.7838 30.7559 10.7824 22.1948C10.7447 21.8497 10.9574 21.5389 11.2744 21.398C19.032 17.128 26.7855 12.8474 34.5431 8.5748C34.8124 8.39497 35.1881 8.39551 35.4569 8.57611C43.2145 12.8474 50.9694 17.1241 58.7283 21.3943C59.0464 21.535 59.25 21.851 59.2176 22.1948C59.2162 30.7559 59.2203 39.3185 59.2149 47.8796C59.2379 48.1826 59.0814 48.4762 58.7984 48.6092C51.1132 52.856 43.3406 56.9658 35.7251 61.336C35.3928 61.5266 35.0165 61.7426 34.6442 61.5325C32.6415 60.4248 30.6631 59.2739 28.667 58.1554C28.4501 58.02 28.1737 57.962 27.9474 58.1133C27.0523 58.585 26.2107 58.967 25.183 59.3738C23.7395 59.9452 23.9702 60.1789 25.2719 60.9372C27.6063 62.2583 29.9445 63.5741 32.2787 64.8965C33.8154 65.8555 35.8802 65.9238 37.4664 65.0375C45.2509 60.7477 53.0328 56.4526 60.8187 52.1628C62.3686 51.3725 63.4483 49.7366 63.4373 48.0139V22.0618C63.4523 20.4076 62.4697 18.8099 61.0007 18.0012C53.1904 13.685 45.3764 9.37822 37.5648 5.06465Z" fill="#8CC84B"/>
<path d="M49.3103 24.5499C46.2551 22.9153 42.6204 22.8283 39.2252 23.0418C36.7724 23.2842 34.1927 23.9611 32.4055 25.7193C30.5727 27.4869 30.1738 30.3411 31.0443 32.6486C31.6682 34.279 33.2386 35.3394 34.8625 35.9002C36.9545 36.6387 39.1516 36.867 41.3495 37.0955C43.3541 37.3038 45.3594 37.5122 47.2861 38.1078C48.0732 38.3687 48.9898 38.7677 49.2308 39.6239C49.4534 40.6381 49.2094 41.8169 48.3859 42.5215C45.7705 44.5916 38.4954 44.2744 35.9112 42.6452C34.8666 41.9511 34.4163 40.7223 34.2333 39.5515C34.213 39.1866 33.9192 38.8519 33.523 38.8796C32.531 38.8678 31.539 38.8705 30.547 38.8783C30.2008 38.8493 29.841 39.0956 29.822 39.4488C29.6182 44.8118 34.5436 47.1498 39.1647 47.6647C41.8049 47.9162 44.503 47.9018 47.1029 47.3353C49.0572 46.8903 51.0166 46.0709 52.362 44.5655C54.0209 42.7362 54.3471 40.0124 53.6031 37.7337C53.0343 36.0335 51.4088 34.9428 49.7471 34.3817C47.4876 33.6069 44.8096 33.1905 42.763 32.9955C39.7882 32.7122 36.2531 32.8279 35.4112 30.8731C35.0755 29.8496 35.3612 28.5787 36.3019 27.9492C38.7906 26.261 43.8556 26.4852 46.433 27.7463C47.6165 28.339 48.3022 29.556 48.5853 30.7848C48.6377 31.1458 48.8806 31.5223 49.2985 31.5066C50.2835 31.5263 51.2688 31.5119 52.2539 31.5132C52.5923 31.537 52.9629 31.3459 53.0289 30.9995C52.9872 28.4313 51.6758 25.8024 49.3103 24.5499Z" fill="#8CC84B"/>
</svg>
