<svg width="70" height="71" viewBox="0 0 70 71" fill="none" xmlns="http://www.w3.org/2000/svg">
<circle cx="35" cy="35.0362" r="30.625" fill="#8892BF"/>
<path d="M31.5857 21.9112H35.2608L34.2222 27.4329H37.5245C39.3354 27.4717 40.6845 27.8764 41.5724 28.6471C42.4779 29.4179 42.7442 30.883 42.3713 33.0414L40.587 42.6683H36.8587L38.5631 33.475C38.7404 32.5112 38.6872 31.8272 38.4033 31.4224C38.1194 31.0177 37.5069 30.8153 36.5657 30.8153L33.6097 30.7864L31.4259 42.6683H27.7508L31.5857 21.9112Z" fill="white"/>
<path fill-rule="evenodd" clip-rule="evenodd" d="M14.7458 27.433H21.8829C23.9777 27.4521 25.4957 28.1078 26.4368 29.3989C27.378 30.69 27.6885 32.4535 27.3689 34.6893C27.2448 35.711 26.9695 36.713 26.5434 37.6959C26.1349 38.6789 25.5671 39.5652 24.839 40.3556C23.9511 41.3576 23.0014 41.9936 21.9894 42.2636C20.9775 42.5336 19.9298 42.6684 18.847 42.6684H15.6512L14.6392 48.1612H10.9375L14.7458 27.433ZM16.2637 39.4016L17.8563 30.7576H18.3942C18.5897 30.7576 18.7937 30.7478 19.0067 30.7287C20.4272 30.7096 21.6076 30.8542 22.5487 31.1624C23.5074 31.4705 23.827 32.6367 23.5074 34.6604C23.117 37.0697 22.3532 38.4765 21.2171 38.8812C20.081 39.2669 18.6605 39.4496 16.9561 39.4305H16.5833C16.4768 39.4305 16.3703 39.4207 16.2637 39.4016Z" fill="white"/>
<path fill-rule="evenodd" clip-rule="evenodd" d="M53.4549 27.433H46.3178L42.5095 48.1612H46.2113L47.2232 42.6684H50.419C51.5018 42.6684 52.5495 42.5336 53.5615 42.2636C54.5734 41.9936 55.5231 41.3576 56.411 40.3556C57.1391 39.5652 57.7069 38.6789 58.1154 37.6959C58.5415 36.713 58.8168 35.711 58.9409 34.6893C59.2605 32.4535 58.95 30.69 58.0089 29.3989C57.0677 28.1078 55.5497 27.4521 53.4549 27.433ZM49.4283 30.7576L47.8358 39.4016C47.9423 39.4207 48.0488 39.4305 48.1553 39.4305H48.5282C50.2326 39.4496 51.6531 39.2669 52.7892 38.8812C53.9252 38.4765 54.689 37.0697 55.0794 34.6604C55.399 32.6367 55.0794 31.4705 54.1207 31.1624C53.1796 30.8542 51.9993 30.7096 50.5788 30.7287C50.3657 30.7478 50.1617 30.7576 49.9662 30.7576H49.4283Z" fill="white"/>
</svg>
