<svg width="70" height="71" viewBox="0 0 70 71" fill="none" xmlns="http://www.w3.org/2000/svg">
<path d="M40.8601 34.9835C40.8601 31.8457 38.2366 29.3017 35 29.3017C31.7637 29.3017 29.1399 31.8457 29.1399 34.9835C29.1399 38.1216 31.7637 40.6655 35 40.6655C38.2366 40.6655 40.8601 38.1216 40.8601 34.9835Z" fill="#53C1DE"/>
<path fill-rule="evenodd" clip-rule="evenodd" d="M54.0321 24.4349C55.2696 19.5592 56.8252 10.5176 51.3415 7.45217C45.8835 4.40014 38.781 10.2484 35.0305 13.7588C31.2909 10.2834 23.9889 4.46012 18.5098 7.53524C13.0539 10.5975 14.7364 19.4892 16.0013 24.3955C10.9119 25.7971 2.1875 28.8158 2.1875 34.9835C2.1875 41.1337 10.9029 44.4179 15.9621 45.8182C14.6925 50.7516 13.0943 59.5164 18.5572 62.5717C24.0565 65.6463 31.336 59.9617 35.1211 56.4129C38.8956 59.9439 45.9301 65.6657 51.3891 62.6018C56.8655 59.5281 55.4391 50.6077 54.1741 45.6729C59.0784 44.2696 67.8125 41.0569 67.8125 34.9835C67.8125 28.875 59.0413 25.8318 54.0321 24.4349ZM53.4105 43.0577C52.5799 40.5084 51.4588 37.7975 50.0874 34.997C51.3964 32.2627 52.4739 29.5867 53.2813 27.0538C56.9535 28.086 65.0092 30.4453 65.0092 34.9835C65.0092 39.5642 57.2789 41.9459 53.4105 43.0577ZM49.9843 60.2494C45.9114 62.5353 39.8609 57.0635 37.0734 54.4631C38.9226 52.5021 40.7706 50.2223 42.5742 47.6908C45.7469 47.4179 48.7441 46.9716 51.4623 46.3625C52.3526 49.853 54.0755 57.953 49.9843 60.2494ZM19.9579 60.2167C15.8844 57.9394 17.7463 50.1182 18.6803 46.4841C21.3683 47.0606 24.3437 47.4753 27.524 47.7254C29.3395 50.2026 31.2409 52.4796 33.1572 54.4736C30.7896 56.6941 24.0505 62.5047 19.9579 60.2167ZM4.99076 34.9835C4.99076 30.3855 12.9983 28.0435 16.7542 27.0138C17.5755 29.6036 18.6527 32.3114 19.9527 35.0497C18.6359 37.8287 17.5433 40.5796 16.7144 43.1999C13.1331 42.206 4.99076 39.5843 4.99076 34.9835ZM19.9143 9.88769C24.0045 7.59218 30.3509 13.1827 33.066 15.699C31.1596 17.6839 29.2756 19.9437 27.4758 22.4066C24.3893 22.684 21.4348 23.1294 18.7186 23.7261C17.6996 19.769 15.8286 12.1807 19.9143 9.88769ZM44.5796 25.3611C46.6737 25.6173 48.6797 25.9581 50.5634 26.3751C49.9979 28.1325 49.2931 29.9702 48.463 31.8541C47.2596 29.6402 45.9679 27.471 44.5796 25.3611ZM35.0314 17.6414C36.3244 18.9996 37.6194 20.5162 38.8933 22.1616C36.3093 22.0432 33.721 22.0426 31.137 22.1599C32.412 20.5297 33.718 19.0153 35.0314 17.6414ZM21.5611 31.8521C20.7447 29.9747 20.0462 28.1289 19.4758 26.3464C21.3482 25.94 23.3449 25.608 25.4253 25.356C24.0332 27.4612 22.7437 29.6297 21.5611 31.8521ZM25.4851 44.805C23.3359 44.5724 21.309 44.2573 19.4372 43.8622C20.0166 42.0482 20.7305 40.1626 21.5643 38.2449C22.7632 40.4903 24.0723 42.6798 25.4851 44.805ZM35.1089 52.5176C33.7802 51.1274 32.4549 49.5898 31.1605 47.936C33.7593 48.0351 36.3631 48.0353 38.9615 47.9228C37.6836 49.6067 36.3932 51.1465 35.1089 52.5176ZM48.4897 38.1472C49.3668 40.0857 50.1063 41.9611 50.6935 43.7445C48.7906 44.1655 46.7364 44.5045 44.5718 44.7563C45.9704 42.6065 47.2825 40.4035 48.4897 38.1472ZM41.0096 45.0857C37.0347 45.3611 33.0347 45.3582 29.0583 45.1083C26.7988 41.9081 24.7875 38.5427 23.0513 35.0488C24.779 31.5622 26.7758 28.2034 29.0246 25.0082C33.004 24.7166 37.0077 24.7159 40.987 25.0099C43.2164 28.2049 45.2102 31.555 46.978 35.0102C45.2311 38.4952 43.224 41.8607 41.0096 45.0857ZM49.9413 9.80687C54.0326 12.0949 52.2114 20.2208 51.3177 23.7543C48.5952 23.1452 45.6385 22.6918 42.5431 22.4102C40.7398 19.9207 38.8715 17.6569 36.9959 15.6976C39.7458 13.1271 45.8896 7.54126 49.9413 9.80687Z" fill="#53C1DE"/>
</svg>
